<?xml version="1.0" standalone="no"?>
<!DOCTYPE svg PUBLIC "-//W3C//DTD SVG 20010904//EN"
 "http://www.w3.org/TR/2001/REC-SVG-20010904/DTD/svg10.dtd">
<svg version="1.0" xmlns="http://www.w3.org/2000/svg"
 width="452.000000pt" height="419.000000pt" viewBox="0 0 452.000000 419.000000"
 preserveAspectRatio="xMidYMid meet">

<g transform="translate(0.000000,419.000000) scale(0.100000,-0.100000)"
fill="#000000" stroke="none">
<path d="M2065 4029 c-264 -26 -588 -136 -820 -279 -436 -268 -745 -691 -870
-1190 -45 -178 -58 -307 -52 -515 6 -218 20 -307 79 -512 l21 -73 623 0 624 0
0 208 0 207 -80 62 -79 62 -35 -14 c-49 -21 -84 -18 -130 8 -76 43 -102 138
-57 211 78 125 276 73 276 -72 0 -26 -4 -59 -8 -73 -8 -24 -2 -31 77 -90 l86
-63 0 -223 0 -223 115 0 115 0 0 328 0 327 -140 118 -140 119 0 184 c0 152 -2
184 -14 184 -21 0 -74 47 -91 81 -50 96 25 219 133 219 89 0 147 -60 147 -152
0 -66 -21 -102 -78 -133 l-37 -20 0 -172 0 -171 140 -118 140 -119 0 -337 0
-338 110 0 110 0 0 374 0 375 -42 23 c-152 85 -59 322 109 276 132 -35 154
-210 35 -276 l-42 -23 0 -375 0 -374 110 0 110 0 0 338 0 337 143 120 142 121
3 264 c3 276 -2 370 -20 370 -20 0 -78 51 -94 82 -35 68 0 169 70 202 105 50
216 -22 216 -140 0 -48 -4 -58 -36 -94 -20 -22 -47 -43 -60 -46 l-24 -6 0
-328 0 -328 -140 -119 -140 -118 0 -328 0 -328 113 3 112 3 3 90 3 90 85 63
c66 49 84 67 79 80 -20 49 -17 101 8 145 78 133 277 81 277 -72 0 -111 -117
-186 -212 -137 -26 14 -30 12 -107 -47 l-80 -62 -1 -77 0 -78 624 0 623 0 21
72 c59 206 73 295 79 513 7 263 -23 459 -107 700 -292 834 -1140 1372 -2025
1284z"/>
<path d="M2783 3250 c-34 -14 -65 -69 -58 -105 7 -43 57 -85 101 -85 50 0 94
45 94 95 0 49 -15 74 -55 91 -39 16 -51 16 -82 4z"/>
<path d="M1673 2963 c-35 -7 -73 -59 -73 -100 0 -69 86 -117 151 -83 24 13 49
61 49 94 0 52 -69 99 -127 89z"/>
<path d="M2195 2437 c-17 -14 -28 -36 -32 -63 -5 -36 -1 -46 25 -75 25 -28 37
-34 72 -34 35 0 47 6 72 34 26 29 30 39 25 75 -7 54 -44 86 -97 86 -26 0 -48
-8 -65 -23z"/>
<path d="M1390 2219 c-47 -19 -70 -49 -70 -94 0 -71 70 -118 136 -90 32 13 64
58 64 90 0 32 -32 77 -65 91 -19 8 -36 14 -37 13 -2 0 -14 -5 -28 -10z"/>
<path d="M3035 1927 c-47 -47 -48 -86 -1 -133 38 -38 70 -43 116 -19 36 19 50
43 50 89 0 49 -34 86 -87 93 -39 5 -46 2 -78 -30z"/>
<path d="M2071 1186 c-16 -17 -22 -33 -19 -57 2 -28 12 -40 63 -74 63 -43 73
-61 55 -94 -13 -26 -65 -28 -98 -5 -19 13 -22 13 -22 1 0 -37 71 -57 118 -33
64 33 53 103 -23 153 -58 38 -70 56 -56 82 14 26 34 32 73 20 41 -11 38 -12
38 5 0 35 -97 36 -129 2z"/>
<path d="M2240 1196 c0 -13 10 -16 50 -16 l50 0 0 -130 c0 -109 2 -130 15
-130 13 0 14 13 9 78 -3 42 -7 83 -9 90 -3 6 -1 12 4 12 4 0 8 16 9 36 1 20 4
39 6 42 3 2 23 5 45 5 42 1 59 15 19 15 -13 0 -62 3 -110 7 -78 7 -88 6 -88
-9z"/>
<path d="M1190 1088 c0 -94 4 -117 19 -137 l18 -23 -5 31 c-2 17 -8 28 -13 25
-5 -3 -9 2 -9 10 0 8 5 18 10 21 6 3 10 44 10 90 0 57 4 85 13 88 6 3 0 6 -15
6 l-28 1 0 -112z"/>
<path d="M1945 1190 c-7 -11 30 -32 39 -23 11 11 6 21 -14 26 -11 3 -22 1 -25
-3z"/>
<path d="M1950 951 c-19 -11 -39 -17 -44 -14 -5 4 -6 0 -1 -6 13 -23 95 4 95
30 0 13 -10 11 -50 -10z"/>
<path d="M1190 935 c0 -8 4 -15 10 -15 5 0 7 7 4 15 -4 8 -8 15 -10 15 -2 0
-4 -7 -4 -15z"/>
<path d="M1011 610 c684 -578 1678 -609 2404 -75 39 29 93 73 120 98 l50 46
-1329 1 -1328 0 83 -70z"/>
</g>
</svg>
